<svg data-v-fde0c5aa="" xmlns="http://www.w3.org/2000/svg" viewBox="0 0 300 300" class="iconLeft"><!----><defs data-v-fde0c5aa=""><!----></defs><rect data-v-fde0c5aa="" fill="transparent" x="0" y="0" width="300px" height="300px" class="logo-background-square"></rect><defs data-v-fde0c5aa=""><!----></defs><g data-v-fde0c5aa="" id="295f4614-2f5f-45f1-91f8-f91af8a4658b" fill="#000000" transform="matrix(2.080021077218953,0,0,2.080021077218953,88.06545013981668,127.77497490893525)"><path d="M1.50 4.36L1.50 13.52L2.73 13.52L2.73 9.94C3.21 10.16 4.01 10.39 4.95 10.39C6.84 10.39 8.34 9.06 8.34 7.45C8.34 5.56 6.73 4.36 5.15 4.36ZM4.91 9.23C4.09 9.23 3.23 9.02 2.73 8.82L2.73 5.52L4.81 5.52C5.99 5.52 7.08 6.29 7.08 7.45C7.08 8.48 6.29 9.23 4.91 9.23ZM13.41 6.55C12.63 6.55 11.83 7.15 11.31 8.05L11.31 6.69L10.19 6.69L10.19 13.52L11.31 13.52L11.31 9.39C11.81 8.48 12.32 7.72 13.25 7.72C13.60 7.72 13.96 7.86 14.25 8.08L14.25 6.74C14 6.62 13.73 6.55 13.41 6.55ZM18.77 6.55C16.69 6.55 15.20 8.20 15.20 10.14C15.20 12.09 16.69 13.73 18.77 13.73C20.85 13.73 22.34 12.09 22.34 10.14C22.34 8.20 20.85 6.55 18.77 6.55ZM18.77 7.64C20.23 7.64 21.18 8.82 21.18 10.14C21.18 11.47 20.23 12.63 18.77 12.63C17.31 12.63 16.37 11.47 16.37 10.14C16.37 8.82 17.31 7.64 18.77 7.64ZM27.00 6.55C25.13 6.55 23.71 7.96 23.71 10.21C23.71 12.29 25.13 13.73 26.89 13.73C27.93 13.73 28.77 13.08 29.24 12.36L29.24 13.79C29.24 15.15 28.10 15.91 26.77 15.91C25.58 15.91 24.65 15.29 24.27 15.07L24.27 16.27C24.75 16.57 25.50 17.01 26.77 17.01C28.71 17.01 30.37 15.83 30.37 13.38L30.37 6.69L29.24 6.69L29.24 7.60C28.66 6.95 27.78 6.55 27.00 6.55ZM27.21 7.66C28.04 7.66 28.66 8.07 29.23 8.78L29.24 10.09C29.26 11.55 28.31 12.62 27.07 12.62C25.74 12.62 24.87 11.54 24.87 10.21C24.87 8.89 25.74 7.66 27.21 7.66ZM35.92 6.55C35.14 6.55 34.33 7.15 33.81 8.05L33.81 6.69L32.69 6.69L32.69 13.52L33.81 13.52L33.81 9.39C34.32 8.48 34.82 7.72 35.75 7.72C36.11 7.72 36.46 7.86 36.75 8.08L36.75 6.74C36.50 6.62 36.23 6.55 35.92 6.55ZM41.00 6.55C39.13 6.55 37.71 7.96 37.71 10.21C37.71 12.29 39.13 13.73 40.89 13.73C41.93 13.73 42.77 13.08 43.24 12.36L43.24 13.52L44.37 13.52L44.37 6.69L43.24 6.69L43.24 7.60C42.66 6.95 41.78 6.55 41.00 6.55ZM41.21 7.64C42.04 7.64 42.66 8.07 43.23 8.78L43.24 10.09C43.26 11.55 42.31 12.63 41.07 12.63C39.74 12.63 38.87 11.54 38.87 10.21C38.87 8.89 39.74 7.64 41.21 7.64ZM54.58 6.55C53.57 6.55 52.87 7.19 52.23 7.94C51.76 7.01 50.85 6.55 49.86 6.55C48.93 6.55 48.25 7.07 47.81 7.56L47.81 6.69L46.69 6.69L46.69 13.52L47.81 13.52L47.81 8.76C48.32 8.15 48.92 7.64 49.67 7.64C50.75 7.64 51.39 8.29 51.39 9.46L51.41 13.52L52.53 13.52L52.53 8.87C53.05 8.22 53.59 7.64 54.39 7.64C55.47 7.64 56.11 8.29 56.11 9.46L56.12 13.52L57.24 13.52L57.24 9.35C57.24 7.46 55.97 6.55 54.58 6.55ZM68.22 13.52L68.22 4.36L67.73 4.36L64.00 8.44L60.20 4.36L59.71 4.36L59.71 13.52L60.94 13.52L60.94 6.82L63.82 9.97L64.18 9.97L66.99 6.82L66.99 13.52ZM76.48 6.69L75.32 6.69L75.32 10.73C75.32 11.92 74.50 12.56 73.58 12.56C72.67 12.56 71.85 11.92 71.85 10.73L71.85 6.69L70.68 6.69L70.68 10.73C70.68 12.54 71.94 13.66 73.58 13.66C75.22 13.66 76.48 12.54 76.48 10.73ZM81.83 6.55C81.05 6.55 80.24 7.15 79.72 8.05L79.72 6.69L78.60 6.69L78.60 13.52L79.72 13.52L79.72 9.39C80.23 8.48 80.73 7.72 81.66 7.72C82.02 7.72 82.37 7.86 82.66 8.08L82.66 6.74C82.41 6.62 82.14 6.55 81.83 6.55Z"></path></g><defs data-v-fde0c5aa=""><linearGradient data-v-fde0c5aa="" gradientTransform="rotate(25)" id="d3ac2651-5ea6-4d11-afcb-3c25832a037a" x1="0%" y1="0%" x2="100%" y2="0%"><stop data-v-fde0c5aa="" offset="0%" stop-color="#395ECA" stop-opacity="1"></stop><stop data-v-fde0c5aa="" offset="100%" stop-color="#848BD8" stop-opacity="1"></stop></linearGradient></defs><g data-v-fde0c5aa="" id="64f500dc-2c3f-4ac7-845c-aeb7b26538f4" stroke="none" fill="url(#d3ac2651-5ea6-4d11-afcb-3c25832a037a)" transform="matrix(0.5863413705281397,0,0,0.5863413705281397,29.81231868707357,121.36103406972967)"><path d="M57.712 70.215H42.03a1.5 1.5 0 0 1-1.5-1.5v-1.113c0-2.39-1.513-4.818-3.113-7.389-2.127-3.414-4.536-7.282-4.536-12.396 0-9.296 7.563-16.859 16.858-16.859s16.859 7.563 16.859 16.859c0 4.357-2.1 7.982-4.13 11.489-1.676 2.896-3.257 5.629-3.257 8.296v1.113a1.5 1.5 0 0 1-1.499 1.5zm-14.191-3h12.697c.126-3.315 1.841-6.278 3.651-9.409 1.834-3.167 3.729-6.438 3.729-9.989 0-7.642-6.218-13.859-13.859-13.859s-13.858 6.218-13.858 13.859c0 4.257 2.075 7.588 4.082 10.81 1.683 2.703 3.423 5.495 3.558 8.588zM56.599 76.5H43.145a1.5 1.5 0 0 1 0-3h13.454a1.5 1.5 0 0 1 0 3zM53.961 82.5h-8.179a1.5 1.5 0 0 1 0-3h8.179a1.5 1.5 0 0 1 0 3zM49.739 25.706a1.5 1.5 0 0 1-1.5-1.5v-7.519a1.5 1.5 0 0 1 3 0v7.519a1.5 1.5 0 0 1-1.5 1.5zM66.755 32.301a1.5 1.5 0 0 1-1.061-2.56l5.54-5.539a1.5 1.5 0 1 1 2.121 2.121l-5.54 5.539a1.497 1.497 0 0 1-1.06.439zM27.448 71.871a1.499 1.499 0 0 1-1.085-2.536l5.54-5.804a1.5 1.5 0 0 1 2.17 2.072l-5.54 5.804a1.494 1.494 0 0 1-1.085.464zM81 49.316h-7.255a1.5 1.5 0 0 1 0-3H81a1.5 1.5 0 0 1 0 3zM25.998 49.316h-7.123a1.5 1.5 0 0 1 0-3h7.123a1.5 1.5 0 0 1 0 3zM32.856 32.434c-.384 0-.768-.146-1.061-.439l-5.276-5.276a1.5 1.5 0 1 1 2.121-2.121l5.276 5.276a1.5 1.5 0 0 1-1.06 2.56zM72.163 71.476c-.384 0-.768-.146-1.061-.439l-5.276-5.276a1.5 1.5 0 1 1 2.121-2.121l5.276 5.276a1.5 1.5 0 0 1-1.06 2.56z"></path><path d="M43.556 55.327c-.384 0-.768-.146-1.061-.439-3.998-3.999-3.998-10.506 0-14.505 4.001-3.998 10.507-3.997 14.504 0a1.5 1.5 0 1 1-2.121 2.121c-2.828-2.828-7.432-2.828-10.262 0-2.828 2.829-2.828 7.434 0 10.263a1.5 1.5 0 0 1-1.06 2.56z"></path></g><!----></svg>