<svg data-v-fde0c5aa="" xmlns="http://www.w3.org/2000/svg" viewBox="0 0 300 300" class="iconLeftSlogan"><!----><defs data-v-fde0c5aa=""><linearGradient data-v-fde0c5aa="" gradientTransform="rotate(25)" id="4cf8c2bf-64fe-45ef-9de1-108808625654" x1="0%" y1="0%" x2="100%" y2="0%"><stop data-v-fde0c5aa="" offset="0%" stop-color="#0076DD" stop-opacity="1"></stop><stop data-v-fde0c5aa="" offset="100%" stop-color="#00CDE9" stop-opacity="1"></stop></linearGradient></defs><rect data-v-fde0c5aa="" fill="url(#4cf8c2bf-64fe-45ef-9de1-108808625654)" x="0" y="0" width="300px" height="300px" class="logo-background-square"></rect><defs data-v-fde0c5aa=""><!----></defs><g data-v-fde0c5aa="" id="c63f0463-46cc-4dca-a5d8-7103e571cd5a" fill="#ffffff" transform="matrix(1.7881778157894401,0,0,1.7881778157894401,96.70360517899319,125.10447829139888)"><path d="M2.24 11.91L2.24 11.91Q2.24 12.10 2.13 12.21L2.13 12.21L2.13 12.21Q2.02 12.33 1.82 12.33L1.82 12.33L1.82 12.33Q1.64 12.33 1.52 12.21L1.52 12.21L1.52 12.21Q1.40 12.10 1.40 11.91L1.40 11.91L1.40 1.82L1.40 1.82Q1.40 1.62 1.52 1.51L1.52 1.51L1.52 1.51Q1.64 1.40 1.82 1.40L1.82 1.40L4.62 1.40L4.62 1.40Q5.63 1.40 6.43 1.85L6.43 1.85L6.43 1.85Q7.22 2.30 7.67 3.09L7.67 3.09L7.67 3.09Q8.12 3.89 8.12 4.90L8.12 4.90L8.12 4.90Q8.12 5.92 7.67 6.72L7.67 6.72L7.67 6.72Q7.22 7.52 6.43 7.97L6.43 7.97L6.43 7.97Q5.63 8.41 4.62 8.41L4.62 8.41L2.24 8.41L2.24 11.91ZM4.62 7.57L4.62 7.57Q5.39 7.57 5.99 7.23L5.99 7.23L5.99 7.23Q6.59 6.89 6.94 6.28L6.94 6.28L6.94 6.28Q7.28 5.67 7.28 4.90L7.28 4.90L7.28 4.90Q7.28 4.13 6.94 3.53L6.94 3.53L6.94 3.53Q6.59 2.93 5.99 2.58L5.99 2.58L5.99 2.58Q5.39 2.24 4.62 2.24L4.62 2.24L2.24 2.24L2.24 7.57L4.62 7.57ZM12.98 4.59L12.98 4.59Q14.04 4.59 14.04 5.05L14.04 5.05L14.04 5.05Q14.04 5.12 14.03 5.17L14.03 5.17L14.03 5.17Q13.99 5.32 13.89 5.38L13.89 5.38L13.89 5.38Q13.80 5.45 13.65 5.45L13.65 5.45L13.65 5.45Q13.52 5.45 13.32 5.42L13.32 5.42L13.32 5.42Q13.12 5.39 12.98 5.39L12.98 5.39L12.98 5.39Q12.28 5.39 11.73 5.68L11.73 5.68L11.73 5.68Q11.19 5.98 10.88 6.50L10.88 6.50L10.88 6.50Q10.57 7.01 10.57 7.66L10.57 7.66L10.57 11.91L10.57 11.91Q10.57 12.10 10.46 12.21L10.46 12.21L10.46 12.21Q10.35 12.33 10.15 12.33L10.15 12.33L10.15 12.33Q9.97 12.33 9.85 12.21L9.85 12.21L9.85 12.21Q9.73 12.10 9.73 11.91L9.73 11.91L9.73 5.10L9.73 5.10Q9.73 4.90 9.85 4.79L9.85 4.79L9.85 4.79Q9.97 4.68 10.15 4.68L10.15 4.68L10.15 4.68Q10.35 4.68 10.46 4.79L10.46 4.79L10.46 4.79Q10.57 4.90 10.57 5.10L10.57 5.10L10.57 5.96L10.57 5.96Q10.98 5.32 11.61 4.96L11.61 4.96L11.61 4.96Q12.24 4.59 12.98 4.59L12.98 4.59ZM19.36 4.59L19.36 4.59Q20.45 4.59 21.35 5.10L21.35 5.10L21.35 5.10Q22.25 5.61 22.76 6.51L22.76 6.51L22.76 6.51Q23.27 7.41 23.27 8.51L23.27 8.51L23.27 8.51Q23.27 9.60 22.76 10.50L22.76 10.50L22.76 10.50Q22.25 11.40 21.35 11.91L21.35 11.91L21.35 11.91Q20.45 12.42 19.36 12.42L19.36 12.42L19.36 12.42Q18.26 12.42 17.36 11.91L17.36 11.91L17.36 11.91Q16.46 11.40 15.95 10.50L15.95 10.50L15.95 10.50Q15.44 9.60 15.44 8.51L15.44 8.51L15.44 8.51Q15.44 7.41 15.95 6.51L15.95 6.51L15.95 6.51Q16.46 5.61 17.36 5.10L17.36 5.10L17.36 5.10Q18.26 4.59 19.36 4.59L19.36 4.59ZM19.36 5.38L19.36 5.38Q18.49 5.38 17.79 5.79L17.79 5.79L17.79 5.79Q17.09 6.20 16.69 6.92L16.69 6.92L16.69 6.92Q16.28 7.63 16.28 8.51L16.28 8.51L16.28 8.51Q16.28 9.39 16.69 10.11L16.69 10.11L16.69 10.11Q17.09 10.82 17.79 11.23L17.79 11.23L17.79 11.23Q18.49 11.63 19.36 11.63L19.36 11.63L19.36 11.63Q20.23 11.63 20.93 11.23L20.93 11.23L20.93 11.23Q21.63 10.82 22.03 10.11L22.03 10.11L22.03 10.11Q22.43 9.39 22.43 8.51L22.43 8.51L22.43 8.51Q22.43 7.63 22.03 6.92L22.03 6.92L22.03 6.92Q21.63 6.20 20.93 5.79L20.93 5.79L20.93 5.79Q20.23 5.38 19.36 5.38L19.36 5.38ZM28.87 4.59L28.87 4.59Q30.00 4.59 30.89 5.10L30.89 5.10L30.89 5.10Q31.78 5.60 32.28 6.49L32.28 6.49L32.28 6.49Q32.77 7.38 32.77 8.51L32.77 8.51L32.77 11.26L32.77 11.26Q32.77 12.38 32.27 13.29L32.27 13.29L32.27 13.29Q31.77 14.21 30.88 14.73L30.88 14.73L30.88 14.73Q30.00 15.26 28.92 15.26L28.92 15.26L28.92 15.26Q27.82 15.26 26.98 14.85L26.98 14.85L26.98 14.85Q26.15 14.43 25.59 13.72L25.59 13.72L25.59 13.72Q25.48 13.58 25.48 13.44L25.48 13.44L25.48 13.44Q25.48 13.27 25.62 13.17L25.62 13.17L25.62 13.17Q25.73 13.09 25.87 13.09L25.87 13.09L25.87 13.09Q26.10 13.09 26.24 13.27L26.24 13.27L26.24 13.27Q26.70 13.83 27.38 14.15L27.38 14.15L27.38 14.15Q28.06 14.48 28.92 14.48L28.92 14.48L28.92 14.48Q29.78 14.48 30.46 14.06L30.46 14.06L30.46 14.06Q31.15 13.64 31.54 12.90L31.54 12.90L31.54 12.90Q31.93 12.17 31.93 11.26L31.93 11.26L31.93 10.64L31.93 10.64Q31.53 11.47 30.72 11.94L30.72 11.94L30.72 11.94Q29.92 12.42 28.87 12.42L28.87 12.42L28.87 12.42Q27.73 12.42 26.84 11.92L26.84 11.92L26.84 11.92Q25.96 11.42 25.45 10.54L25.45 10.54L25.45 10.54Q24.95 9.65 24.95 8.51L24.95 8.51L24.95 8.51Q24.95 7.39 25.47 6.50L25.47 6.50L25.47 6.50Q25.98 5.60 26.88 5.10L26.88 5.10L26.88 5.10Q27.78 4.59 28.87 4.59L28.87 4.59ZM28.87 11.63L28.87 11.63Q29.75 11.63 30.45 11.23L30.45 11.23L30.45 11.23Q31.15 10.84 31.54 10.13L31.54 10.13L31.54 10.13Q31.93 9.42 31.93 8.51L31.93 8.51L31.93 8.51Q31.93 7.60 31.54 6.89L31.54 6.89L31.54 6.89Q31.15 6.17 30.45 5.77L30.45 5.77L30.45 5.77Q29.75 5.38 28.87 5.38L28.87 5.38L28.87 5.38Q27.97 5.38 27.27 5.77L27.27 5.77L27.27 5.77Q26.57 6.17 26.18 6.89L26.18 6.89L26.18 6.89Q25.79 7.60 25.79 8.51L25.79 8.51L25.79 8.51Q25.79 9.42 26.18 10.13L26.18 10.13L26.18 10.13Q26.57 10.84 27.27 11.23L27.27 11.23L27.27 11.23Q27.97 11.63 28.87 11.63L28.87 11.63ZM38.12 4.59L38.12 4.59Q39.19 4.59 39.19 5.05L39.19 5.05L39.19 5.05Q39.19 5.12 39.17 5.17L39.17 5.17L39.17 5.17Q39.13 5.32 39.04 5.38L39.04 5.38L39.04 5.38Q38.95 5.45 38.79 5.45L38.79 5.45L38.79 5.45Q38.67 5.45 38.47 5.42L38.47 5.42L38.47 5.42Q38.26 5.39 38.12 5.39L38.12 5.39L38.12 5.39Q37.42 5.39 36.88 5.68L36.88 5.68L36.88 5.68Q36.33 5.98 36.02 6.50L36.02 6.50L36.02 6.50Q35.71 7.01 35.71 7.66L35.71 7.66L35.71 11.91L35.71 11.91Q35.71 12.10 35.60 12.21L35.60 12.21L35.60 12.21Q35.49 12.33 35.29 12.33L35.29 12.33L35.29 12.33Q35.11 12.33 34.99 12.21L34.99 12.21L34.99 12.21Q34.87 12.10 34.87 11.91L34.87 11.91L34.87 5.10L34.87 5.10Q34.87 4.90 34.99 4.79L34.99 4.79L34.99 4.79Q35.11 4.68 35.29 4.68L35.29 4.68L35.29 4.68Q35.49 4.68 35.60 4.79L35.60 4.79L35.60 4.79Q35.71 4.90 35.71 5.10L35.71 5.10L35.71 5.96L35.71 5.96Q36.12 5.32 36.75 4.96L36.75 4.96L36.75 4.96Q37.38 4.59 38.12 4.59L38.12 4.59ZM44.51 4.59L44.51 4.59Q45.60 4.59 46.49 5.10L46.49 5.10L46.49 5.10Q47.39 5.61 47.90 6.51L47.90 6.51L47.90 6.51Q48.41 7.41 48.41 8.51L48.41 8.51L48.41 11.91L48.41 11.91Q48.41 12.10 48.30 12.21L48.30 12.21L48.30 12.21Q48.19 12.33 47.99 12.33L47.99 12.33L47.99 12.33Q47.81 12.33 47.69 12.21L47.69 12.21L47.69 12.21Q47.57 12.10 47.57 11.91L47.57 11.91L47.57 10.82L47.57 10.82Q47.11 11.56 46.30 11.99L46.30 11.99L46.30 11.99Q45.50 12.42 44.51 12.42L44.51 12.42L44.51 12.42Q43.40 12.42 42.50 11.91L42.50 11.91L42.50 11.91Q41.61 11.40 41.10 10.50L41.10 10.50L41.10 10.50Q40.59 9.60 40.59 8.51L40.59 8.51L40.59 8.51Q40.59 7.41 41.10 6.51L41.10 6.51L41.10 6.51Q41.61 5.61 42.50 5.10L42.50 5.10L42.50 5.10Q43.40 4.59 44.51 4.59L44.51 4.59ZM44.51 11.63L44.51 11.63Q45.37 11.63 46.07 11.23L46.07 11.23L46.07 11.23Q46.77 10.82 47.17 10.11L47.17 10.11L47.17 10.11Q47.57 9.39 47.57 8.51L47.57 8.51L47.57 8.51Q47.57 7.63 47.17 6.92L47.17 6.92L47.17 6.92Q46.77 6.20 46.07 5.79L46.07 5.79L46.07 5.79Q45.37 5.38 44.51 5.38L44.51 5.38L44.51 5.38Q43.64 5.38 42.94 5.79L42.94 5.79L42.94 5.79Q42.24 6.20 41.83 6.92L41.83 6.92L41.83 6.92Q41.43 7.63 41.43 8.51L41.43 8.51L41.43 8.51Q41.43 9.39 41.83 10.11L41.83 10.11L41.83 10.11Q42.24 10.82 42.94 11.23L42.94 11.23L42.94 11.23Q43.64 11.63 44.51 11.63L44.51 11.63ZM58.59 4.58L58.59 4.58Q59.43 4.58 60.09 5.00L60.09 5.00L60.09 5.00Q60.75 5.42 61.11 6.17L61.11 6.17L61.11 6.17Q61.47 6.92 61.47 7.87L61.47 7.87L61.47 11.91L61.47 11.91Q61.47 12.10 61.36 12.21L61.36 12.21L61.36 12.21Q61.25 12.33 61.05 12.33L61.05 12.33L61.05 12.33Q60.87 12.33 60.75 12.21L60.75 12.21L60.75 12.21Q60.63 12.10 60.63 11.91L60.63 11.91L60.63 7.87L60.63 7.87Q60.63 6.79 60.06 6.10L60.06 6.10L60.06 6.10Q59.49 5.42 58.59 5.42L58.59 5.42L58.59 5.42Q57.61 5.42 57.01 6.06L57.01 6.06L57.01 6.06Q56.41 6.71 56.43 7.77L56.43 7.77L56.43 7.87L56.43 11.91L56.43 11.91Q56.43 12.10 56.32 12.21L56.32 12.21L56.32 12.21Q56.21 12.33 56.01 12.33L56.01 12.33L56.01 12.33Q55.83 12.33 55.71 12.21L55.71 12.21L55.71 12.21Q55.59 12.10 55.59 11.91L55.59 11.91L55.59 7.87L55.59 7.87Q55.59 6.79 55.02 6.10L55.02 6.10L55.02 6.10Q54.45 5.42 53.55 5.42L53.55 5.42L53.55 5.42Q52.58 5.42 51.97 6.03L51.97 6.03L51.97 6.03Q51.35 6.65 51.35 7.63L51.35 7.63L51.35 11.91L51.35 11.91Q51.35 12.10 51.24 12.21L51.24 12.21L51.24 12.21Q51.13 12.33 50.93 12.33L50.93 12.33L50.93 12.33Q50.75 12.33 50.63 12.21L50.63 12.21L50.63 12.21Q50.51 12.10 50.51 11.91L50.51 11.91L50.51 5.10L50.51 5.10Q50.51 4.90 50.63 4.79L50.63 4.79L50.63 4.79Q50.75 4.68 50.93 4.68L50.93 4.68L50.93 4.68Q51.13 4.68 51.24 4.79L51.24 4.79L51.24 4.79Q51.35 4.90 51.35 5.10L51.35 5.10L51.35 5.64L51.35 5.64Q51.74 5.14 52.32 4.86L52.32 4.86L52.32 4.86Q52.89 4.58 53.55 4.58L53.55 4.58L53.55 4.58Q54.36 4.58 55.01 4.98L55.01 4.98L55.01 4.98Q55.65 5.38 56.03 6.08L56.03 6.08L56.03 6.08Q56.41 5.38 57.08 4.98L57.08 4.98L57.08 4.98Q57.75 4.58 58.59 4.58L58.59 4.58ZM74.52 1.40L74.52 1.40Q74.70 1.40 74.82 1.52L74.82 1.52L74.82 1.52Q74.93 1.64 74.93 1.82L74.93 1.82L74.93 11.91L74.93 11.91Q74.93 12.10 74.82 12.21L74.82 12.21L74.82 12.21Q74.70 12.33 74.52 12.33L74.52 12.33L74.52 12.33Q74.34 12.33 74.21 12.21L74.21 12.21L74.21 12.21Q74.09 12.10 74.09 11.91L74.09 11.91L74.09 3.33L69.83 12.00L69.83 12.00Q69.73 12.19 69.47 12.19L69.47 12.19L69.47 12.19Q69.22 12.19 69.08 11.93L69.08 11.93L64.83 3.46L64.83 11.91L64.83 11.91Q64.83 12.10 64.72 12.21L64.72 12.21L64.72 12.21Q64.60 12.33 64.41 12.33L64.41 12.33L64.41 12.33Q64.23 12.33 64.11 12.21L64.11 12.21L64.11 12.21Q63.99 12.10 63.99 11.91L63.99 11.91L63.99 1.82L63.99 1.82Q63.99 1.64 64.11 1.52L64.11 1.52L64.11 1.52Q64.23 1.40 64.41 1.40L64.41 1.40L64.41 1.40Q64.69 1.40 64.79 1.61L64.79 1.61L69.50 10.91L74.14 1.61L74.14 1.61Q74.27 1.40 74.52 1.40L74.52 1.40ZM84.07 4.68L84.07 4.68Q84.27 4.68 84.38 4.79L84.38 4.79L84.38 4.79Q84.49 4.90 84.49 5.10L84.49 5.10L84.49 11.91L84.49 11.91Q84.49 12.10 84.38 12.21L84.38 12.21L84.38 12.21Q84.27 12.33 84.07 12.33L84.07 12.33L84.07 12.33Q83.89 12.33 83.77 12.21L83.77 12.21L83.77 12.21Q83.65 12.10 83.65 11.91L83.65 11.91L83.65 11.19L83.65 11.19Q83.17 11.77 82.49 12.10L82.49 12.10L82.49 12.10Q81.80 12.43 80.99 12.43L80.99 12.43L80.99 12.43Q79.97 12.43 79.16 12.01L79.16 12.01L79.16 12.01Q78.36 11.59 77.90 10.79L77.90 10.79L77.90 10.79Q77.45 9.98 77.45 8.86L77.45 8.86L77.45 5.10L77.45 5.10Q77.45 4.91 77.57 4.79L77.57 4.79L77.57 4.79Q77.69 4.68 77.87 4.68L77.87 4.68L77.87 4.68Q78.05 4.68 78.17 4.79L78.17 4.79L78.17 4.79Q78.29 4.91 78.29 5.10L78.29 5.10L78.29 8.86L78.29 8.86Q78.29 10.19 79.04 10.89L79.04 10.89L79.04 10.89Q79.79 11.59 80.99 11.59L80.99 11.59L80.99 11.59Q81.73 11.59 82.34 11.30L82.34 11.30L82.34 11.30Q82.95 11.02 83.30 10.51L83.30 10.51L83.30 10.51Q83.65 10.00 83.65 9.38L83.65 9.38L83.65 5.10L83.65 5.10Q83.65 4.90 83.77 4.79L83.77 4.79L83.77 4.79Q83.89 4.68 84.07 4.68L84.07 4.68ZM90.26 4.59L90.26 4.59Q91.32 4.59 91.32 5.05L91.32 5.05L91.32 5.05Q91.32 5.12 91.31 5.17L91.31 5.17L91.31 5.17Q91.27 5.32 91.17 5.38L91.17 5.38L91.17 5.38Q91.08 5.45 90.93 5.45L90.93 5.45L90.93 5.45Q90.80 5.45 90.60 5.42L90.60 5.42L90.60 5.42Q90.40 5.39 90.26 5.39L90.26 5.39L90.26 5.39Q89.56 5.39 89.01 5.68L89.01 5.68L89.01 5.68Q88.47 5.98 88.16 6.50L88.16 6.50L88.16 6.50Q87.85 7.01 87.85 7.66L87.85 7.66L87.85 11.91L87.85 11.91Q87.85 12.10 87.74 12.21L87.74 12.21L87.74 12.21Q87.63 12.33 87.43 12.33L87.43 12.33L87.43 12.33Q87.25 12.33 87.13 12.21L87.13 12.21L87.13 12.21Q87.01 12.10 87.01 11.91L87.01 11.91L87.01 5.10L87.01 5.10Q87.01 4.90 87.13 4.79L87.13 4.79L87.13 4.79Q87.25 4.68 87.43 4.68L87.43 4.68L87.43 4.68Q87.63 4.68 87.74 4.79L87.74 4.79L87.74 4.79Q87.85 4.90 87.85 5.10L87.85 5.10L87.85 5.96L87.85 5.96Q88.26 5.32 88.89 4.96L88.89 4.96L88.89 4.96Q89.52 4.59 90.26 4.59L90.26 4.59Z"></path></g><defs data-v-fde0c5aa=""><!----></defs><g data-v-fde0c5aa="" id="b8cf16ad-1343-41ad-93c7-74ee755511a1" stroke="none" fill="#ffffff" transform="matrix(0.7095133063871772,0,0,0.7095133063871772,27.672206301522795,115.34488536875185)"><path d="M57.712 70.215H42.03a1.5 1.5 0 0 1-1.5-1.5v-1.113c0-2.39-1.513-4.818-3.113-7.389-2.127-3.414-4.536-7.282-4.536-12.396 0-9.296 7.563-16.859 16.858-16.859s16.859 7.563 16.859 16.859c0 4.357-2.1 7.982-4.13 11.489-1.676 2.896-3.257 5.629-3.257 8.296v1.113a1.5 1.5 0 0 1-1.499 1.5zm-14.191-3h12.697c.126-3.315 1.841-6.278 3.651-9.409 1.834-3.167 3.729-6.438 3.729-9.989 0-7.642-6.218-13.859-13.859-13.859s-13.858 6.218-13.858 13.859c0 4.257 2.075 7.588 4.082 10.81 1.683 2.703 3.423 5.495 3.558 8.588zM56.599 76.5H43.145a1.5 1.5 0 0 1 0-3h13.454a1.5 1.5 0 0 1 0 3zM53.961 82.5h-8.179a1.5 1.5 0 0 1 0-3h8.179a1.5 1.5 0 0 1 0 3zM49.739 25.706a1.5 1.5 0 0 1-1.5-1.5v-7.519a1.5 1.5 0 0 1 3 0v7.519a1.5 1.5 0 0 1-1.5 1.5zM66.755 32.301a1.5 1.5 0 0 1-1.061-2.56l5.54-5.539a1.5 1.5 0 1 1 2.121 2.121l-5.54 5.539a1.497 1.497 0 0 1-1.06.439zM27.448 71.871a1.499 1.499 0 0 1-1.085-2.536l5.54-5.804a1.5 1.5 0 0 1 2.17 2.072l-5.54 5.804a1.494 1.494 0 0 1-1.085.464zM81 49.316h-7.255a1.5 1.5 0 0 1 0-3H81a1.5 1.5 0 0 1 0 3zM25.998 49.316h-7.123a1.5 1.5 0 0 1 0-3h7.123a1.5 1.5 0 0 1 0 3zM32.856 32.434c-.384 0-.768-.146-1.061-.439l-5.276-5.276a1.5 1.5 0 1 1 2.121-2.121l5.276 5.276a1.5 1.5 0 0 1-1.06 2.56zM72.163 71.476c-.384 0-.768-.146-1.061-.439l-5.276-5.276a1.5 1.5 0 1 1 2.121-2.121l5.276 5.276a1.5 1.5 0 0 1-1.06 2.56z"></path><path d="M43.556 55.327c-.384 0-.768-.146-1.061-.439-3.998-3.999-3.998-10.506 0-14.505 4.001-3.998 10.507-3.997 14.504 0a1.5 1.5 0 1 1-2.121 2.121c-2.828-2.828-7.432-2.828-10.262 0-2.828 2.829-2.828 7.434 0 10.263a1.5 1.5 0 0 1-1.06 2.56z"></path></g><defs data-v-fde0c5aa=""><!----></defs><g data-v-fde0c5aa="" id="c6e79a52-43ed-4f03-8918-bd8232f0367e" fill="#ffffff" transform="matrix(0.5367279295299258,0,0,0.5367279295299258,98.60055152065543,161.26494420830292)"><path d="M7.95 3.22L7.95 2.21L1.13 2.21L1.13 11.48L7.95 11.48L7.95 10.47L2.18 10.47L2.18 7.35L7.34 7.35L7.34 6.33L2.18 6.33L2.18 3.22ZM23.88 2.21L22.55 2.21L19.80 5.85L17.05 2.21L15.72 2.21L19.17 6.69L15.47 11.48L16.80 11.48L19.80 7.50L22.81 11.48L24.14 11.48L20.44 6.69ZM33.28 8.18L36.40 8.18C38.37 8.18 39.59 7.03 39.59 5.19C39.59 3.37 38.37 2.21 36.40 2.21L32.23 2.21L32.23 11.48L33.28 11.48ZM36.33 3.21C37.79 3.21 38.54 3.96 38.54 5.19C38.54 6.44 37.79 7.20 36.33 7.20L33.28 7.20L33.28 3.21ZM48.02 2.21L48.02 11.48L54.12 11.48L54.12 10.47L49.07 10.47L49.07 2.21ZM66.19 2.10C63.38 2.10 61.49 4.21 61.49 6.85C61.49 9.48 63.38 11.59 66.19 11.59C69.01 11.59 70.90 9.48 70.90 6.85C70.90 4.21 69.01 2.10 66.19 2.10ZM66.19 10.57C63.94 10.57 62.54 8.93 62.54 6.85C62.54 4.76 63.94 3.12 66.19 3.12C68.45 3.12 69.85 4.76 69.85 6.85C69.85 8.93 68.45 10.57 66.19 10.57ZM80.63 7.92L83.85 7.92L86.09 11.48L87.33 11.48L84.90 7.74C85.93 7.50 87.14 6.90 87.14 5.11C87.14 3.35 85.92 2.21 84.01 2.21L79.58 2.21L79.58 11.48L80.63 11.48ZM80.63 3.21L83.89 3.21C85.20 3.21 86.09 3.93 86.09 5.11C86.09 6.55 84.83 6.93 83.83 6.93L80.63 6.93ZM102.76 3.22L102.76 2.21L95.94 2.21L95.94 11.48L102.76 11.48L102.76 10.47L96.99 10.47L96.99 7.35L102.14 7.35L102.14 6.33L96.99 6.33L96.99 3.22ZM128.02 2.21L120.50 2.21L120.50 3.22L123.73 3.22L123.73 11.48L124.78 11.48L124.78 3.22L128.02 3.22ZM143.16 3.22L143.16 2.21L136.35 2.21L136.35 11.48L143.16 11.48L143.16 10.47L137.40 10.47L137.40 7.35L142.55 7.35L142.55 6.33L137.40 6.33L137.40 3.22ZM155.67 10.57C153.41 10.57 152.15 8.93 152.15 6.85C152.15 4.76 153.41 3.12 155.67 3.12C157.19 3.12 158.20 3.85 158.68 4.98L159.78 4.98C159.19 3.29 157.68 2.10 155.58 2.10C152.80 2.10 151.10 4.21 151.10 6.85C151.10 9.48 152.80 11.59 155.58 11.59C157.68 11.59 159.19 10.40 159.78 8.71L158.68 8.71C158.20 9.84 157.19 10.57 155.67 10.57ZM174.79 2.21L174.79 6.33L169.40 6.33L169.40 2.21L168.35 2.21L168.35 11.48L169.40 11.48L169.40 7.35L174.79 7.35L174.79 11.48L175.84 11.48L175.84 2.21ZM199.23 2.21L199.23 8.37C199.23 9.32 199.00 10.57 197.32 10.57C196.00 10.57 195.37 9.73 195.26 9.00L194.17 9.00C194.29 10.26 195.26 11.59 197.26 11.59C199.50 11.59 200.28 10.04 200.28 8.41L200.28 2.21ZM213.58 2.10C210.77 2.10 208.88 4.21 208.88 6.85C208.88 9.48 210.77 11.59 213.58 11.59C216.40 11.59 218.29 9.48 218.29 6.85C218.29 4.21 216.40 2.10 213.58 2.10ZM213.58 10.57C211.33 10.57 209.93 8.93 209.93 6.85C209.93 4.76 211.33 3.12 213.58 3.12C215.84 3.12 217.24 4.76 217.24 6.85C217.24 8.93 215.84 10.57 213.58 10.57ZM233.69 2.21L233.69 7.52C233.69 9.67 232.26 10.57 230.79 10.57C229.32 10.57 227.91 9.67 227.91 7.52L227.91 2.21L226.86 2.21L226.86 7.49C226.86 9.95 228.48 11.59 230.79 11.59C233.11 11.59 234.74 9.94 234.74 7.49L234.74 2.21ZM244.94 7.92L248.16 7.92L250.40 11.48L251.65 11.48L249.21 7.74C250.25 7.50 251.45 6.90 251.45 5.11C251.45 3.35 250.24 2.21 248.33 2.21L243.89 2.21L243.89 11.48L244.94 11.48ZM244.94 3.21L248.21 3.21C249.52 3.21 250.40 3.93 250.40 5.11C250.40 6.55 249.14 6.93 248.15 6.93L244.94 6.93ZM267.20 2.21L267.20 10.01L261.48 2.21L260.26 2.21L260.26 11.48L261.31 11.48L261.31 3.65L267.04 11.48L268.25 11.48L268.25 2.21ZM284.34 3.22L284.34 2.21L277.52 2.21L277.52 11.48L284.34 11.48L284.34 10.47L278.57 10.47L278.57 7.35L283.72 7.35L283.72 6.33L278.57 6.33L278.57 3.22ZM296.83 7.81L300.71 2.21L299.43 2.21L296.30 6.72L293.16 2.21L291.89 2.21L295.78 7.81L295.78 11.48L296.83 11.48Z"></path></g></svg>